<?xml version="1.0" standalone="no"?>
<!DOCTYPE svg PUBLIC "-//W3C//DTD SVG 20010904//EN"
 "http://www.w3.org/TR/2001/REC-SVG-20010904/DTD/svg10.dtd">
<svg version="1.0" xmlns="http://www.w3.org/2000/svg"
 width="16.000000pt" height="16.000000pt" viewBox="0 0 16.000000 16.000000"
 preserveAspectRatio="xMidYMid meet">
<metadata>
Created by potrace 1.11, written by Peter Selinger 2001-2013
</metadata>
<g transform="translate(0.000000,16.000000) scale(0.001563,-0.001563)"
fill="#000000" stroke="none">
<path d="M20 8075 c0 -14 68 -166 171 -384 33 -67 59 -126 59 -130 0 -3 8 -22
19 -41 10 -19 22 -46 26 -60 4 -14 13 -38 21 -55 48 -108 234 -607 234 -630 0
-5 7 -23 15 -39 8 -15 21 -51 29 -80 8 -28 24 -80 35 -116 59 -191 74 -241 91
-305 10 -38 28 -106 40 -150 12 -44 30 -118 40 -165 10 -47 28 -128 39 -180
12 -52 32 -149 46 -215 13 -66 34 -163 45 -215 11 -52 29 -135 38 -185 10 -49
29 -110 42 -135 l25 -45 343 -3 342 -2 0 27 c0 16 -5 46 -11 68 -15 56 -47
196 -68 290 -10 44 -21 91 -26 104 -7 23 -29 117 -59 259 -11 51 -11 62 -1 58
22 -8 287 -198 330 -235 125 -110 253 -263 395 -471 l65 -95 315 0 315 0 14
43 c15 50 21 35 -76 211 -35 62 -63 115 -63 117 0 2 -43 68 -96 146 -98 145
-270 357 -408 503 l-76 79 60 59 c86 85 92 100 97 252 4 123 -1 179 -26 285
-13 51 -96 317 -116 370 -7 19 -25 69 -41 110 -15 41 -35 93 -45 115 -9 22
-20 51 -24 65 -4 14 -37 84 -74 155 -57 112 -77 140 -143 207 -79 78 -165 142
-228 171 -50 22 -143 47 -178 47 -17 0 -33 4 -37 9 -3 5 -50 13 -105 17 -55 3
-103 10 -105 14 -3 5 -57 11 -120 15 -63 4 -117 11 -120 15 -3 5 -57 11 -120
15 -63 4 -118 11 -121 16 -3 5 -26 9 -52 9 -26 0 -65 5 -87 10 -22 5 -80 12
-130 16 -49 4 -94 10 -100 14 -5 5 -59 11 -120 15 -60 4 -114 11 -120 15 -13
10 -195 24 -195 15z m1134 -842 c4 -4 17 -8 29 -9 99 -10 137 -17 142 -24 2
-4 30 -11 60 -15 30 -3 55 -10 55 -15 0 -4 11 -11 24 -14 38 -9 122 -111 165
-200 59 -121 114 -267 113 -301 -1 -40 -19 -70 -51 -85 -31 -15 -277 -25 -339
-13 l-43 8 -58 170 c-64 186 -87 250 -100 280 -18 41 -81 210 -81 218 0 9 74
9 84 0z"/>
<path d="M2526 7709 c-18 -89 -9 -127 105 -439 113 -313 263 -753 342 -1010
90 -288 171 -652 238 -1065 17 -110 38 -206 45 -214 10 -11 126 -12 717 -6
l706 8 35 29 c42 35 44 53 21 238 -8 63 -19 158 -26 210 -6 52 -16 98 -21 101
-5 3 -159 9 -341 13 -183 4 -393 9 -467 12 l-135 4 -17 83 c-10 45 -26 125
-37 177 -10 52 -22 105 -26 118 -7 22 -6 22 91 22 55 0 136 -4 182 -10 46 -5
195 -12 331 -16 l247 -7 32 50 32 50 -15 69 c-22 104 -51 220 -75 309 -11 44
-24 90 -27 102 -3 12 -10 26 -17 31 -10 9 -286 32 -606 53 -74 4 -157 11 -185
14 -182 19 -164 13 -176 59 -6 22 -14 45 -17 51 -8 13 -62 168 -62 178 0 8 25
7 210 -12 47 -5 146 -14 220 -20 74 -6 169 -16 210 -21 41 -5 104 -11 140 -12
l65 -3 33 65 33 65 -18 55 c-17 55 -92 249 -118 305 -7 17 -27 60 -44 98 -17
37 -31 72 -31 77 0 15 -17 21 -92 30 -40 6 -122 17 -183 25 -60 8 -146 19
-190 24 -44 5 -91 12 -105 15 -14 4 -63 11 -110 17 -47 5 -137 16 -200 25
-209 27 -344 43 -440 54 -52 5 -114 14 -137 20 -23 5 -57 10 -76 10 -31 0 -35
-4 -41 -31z"/>
<path d="M4430 7419 c-36 -76 -37 -92 -9 -161 18 -45 110 -294 195 -528 41
-111 121 -351 144 -430 12 -41 28 -97 37 -125 41 -132 134 -523 158 -665 8
-47 26 -148 40 -225 13 -77 30 -171 36 -210 6 -38 16 -76 21 -82 8 -10 70 -13
246 -13 l235 0 54 36 c52 35 54 37 49 73 -3 20 -8 65 -11 101 -6 64 -46 308
-66 405 -6 28 -12 60 -15 73 l-4 22 255 0 c289 0 275 -3 383 83 152 120 163
211 68 549 -156 553 -230 738 -345 862 -51 55 -98 82 -198 115 -113 37 -197
53 -433 81 -41 5 -127 16 -190 24 -63 9 -158 20 -210 26 -52 5 -104 12 -115
15 -11 3 -56 10 -100 15 -44 5 -106 12 -137 16 l-58 7 -30 -64z m920 -620
c138 -15 169 -28 196 -80 20 -39 153 -411 161 -450 l6 -31 -64 6 c-35 3 -103
8 -151 12 l-87 6 -21 54 c-11 30 -20 58 -20 62 0 4 -31 104 -70 222 -38 118
-70 216 -70 218 0 3 10 1 23 -3 12 -4 56 -11 97 -16z"/>
<path d="M6345 7242 c-43 -27 -169 -169 -196 -222 -21 -38 -24 -59 -24 -140 1
-62 7 -113 18 -145 9 -27 28 -88 42 -135 15 -47 34 -112 45 -145 10 -33 30
-100 45 -150 15 -49 33 -108 40 -130 27 -79 77 -273 105 -410 10 -49 26 -126
34 -170 9 -44 21 -96 26 -115 5 -20 16 -87 25 -150 8 -63 20 -142 25 -175 5
-33 12 -81 16 -107 l5 -48 217 0 c216 0 217 0 274 27 32 16 59 33 61 38 7 18
-22 319 -38 393 -8 40 -15 77 -15 81 0 5 51 6 113 4 126 -6 131 -8 142 -80 4
-25 11 -55 16 -67 5 -11 16 -73 24 -136 19 -138 23 -163 33 -215 l7 -40 195
-3 c112 -1 203 2 215 7 11 6 42 19 68 31 26 11 50 27 53 34 9 23 -66 519 -102
676 -132 570 -231 867 -416 1253 -70 144 -63 139 -203 151 -38 4 -95 11 -125
16 -61 10 -327 44 -580 75 -25 3 -61 8 -80 11 -24 3 -44 -1 -65 -14z m601
-573 c7 -5 15 -22 19 -37 4 -15 13 -40 20 -57 23 -50 96 -247 112 -300 19 -63
38 -132 47 -167 l6 -28 -102 0 c-57 0 -109 4 -116 9 -27 17 -182 548 -173 591
2 9 176 -1 187 -11z"/>
<path d="M7622 7025 c-40 -31 -72 -60 -72 -65 0 -7 80 -215 110 -285 4 -11 22
-63 40 -115 18 -52 36 -104 41 -115 7 -16 24 -72 46 -150 1 -5 12 -40 23 -77
52 -171 63 -208 82 -283 11 -44 29 -116 40 -160 11 -44 28 -118 37 -165 10
-47 23 -103 29 -125 16 -59 43 -235 56 -365 l11 -115 199 -3 c126 -1 203 1
210 8 5 5 17 10 26 10 8 0 28 7 44 15 15 8 34 15 42 15 29 0 32 35 14 205 -10
94 -23 197 -29 230 -6 33 -18 98 -26 145 -12 74 -28 149 -65 318 -19 85 -83
314 -128 457 -23 74 -140 399 -157 440 -8 17 -17 44 -21 60 -4 17 -18 54 -31
83 -22 50 -24 52 -63 52 -22 0 -84 6 -138 14 -53 8 -131 17 -173 21 l-75 6
-72 -56z"/>
<path d="M8398 6930 c-53 -34 -78 -57 -78 -70 0 -10 4 -21 9 -24 5 -3 15 -30
21 -58 7 -29 16 -57 20 -63 5 -5 13 -30 19 -55 7 -25 18 -61 26 -80 19 -48
100 -322 110 -375 4 -16 10 -39 15 -50 9 -21 28 -104 60 -260 9 -49 20 -97 24
-105 6 -17 39 -244 67 -470 10 -85 23 -182 28 -215 5 -33 10 -70 10 -82 l1
-23 203 0 c194 -1 206 0 289 27 99 32 97 27 77 138 -5 33 -14 84 -18 113 l-8
53 29 -28 c29 -27 155 -221 179 -275 l12 -28 199 0 c144 0 212 4 246 14 26 8
58 17 72 20 14 3 33 11 42 18 16 12 15 17 -8 73 -86 206 -172 349 -313 524
l-84 104 28 20 c46 34 95 89 103 116 29 104 -17 369 -115 660 -35 106 -76 172
-144 235 -75 69 -136 90 -354 116 -44 5 -98 12 -120 15 -181 24 -520 65 -542
65 -17 0 -60 -21 -105 -50z m708 -552 c32 -39 69 -119 85 -185 7 -27 15 -52
19 -58 4 -5 11 -31 14 -57 l7 -48 -35 0 c-19 0 -38 5 -41 10 -4 6 -20 65 -36
133 -17 67 -37 141 -45 165 -26 79 -14 94 32 40z"/>
<path d="M9305 4848 c-352 -8 -402 -12 -513 -44 -62 -18 -61 -12 -23 -139 11
-38 27 -92 35 -120 8 -27 28 -97 46 -155 34 -112 62 -216 86 -320 8 -36 19
-74 24 -85 12 -27 38 -147 60 -280 10 -60 21 -117 24 -125 4 -8 16 -103 27
-210 12 -107 23 -214 26 -238 l5 -43 102 4 c55 3 146 12 201 21 55 8 136 20
180 26 44 5 91 13 105 16 14 3 54 10 90 15 36 5 108 15 160 23 52 8 135 20
183 27 l88 13 -6 160 c-4 89 -8 167 -11 174 -3 10 -19 12 -61 8 -32 -4 -103
-10 -158 -16 -55 -5 -116 -12 -135 -16 -93 -17 -253 -29 -256 -19 -2 5 -10 62
-18 125 -8 63 -18 129 -22 147 -8 38 -17 36 236 58 96 9 182 18 190 20 8 3 39
7 69 11 30 3 64 10 76 14 20 8 22 12 14 47 -5 21 -16 74 -23 118 -8 44 -20
102 -26 129 l-12 48 -87 -5 c-47 -3 -180 -12 -295 -21 -144 -10 -214 -12 -222
-5 -7 6 -16 29 -19 52 -4 23 -16 68 -27 99 -11 32 -17 62 -14 66 3 5 92 12
198 15 106 3 209 10 228 16 19 5 63 15 98 22 46 10 62 17 62 30 0 29 -79 260
-112 327 -13 25 36 24 -573 10z"/>
<path d="M8150 4811 c-102 -40 -95 -33 -113 -113 -9 -40 -21 -99 -27 -130 -6
-32 -15 -60 -20 -63 -4 -3 -23 12 -40 33 -18 20 -74 81 -123 135 -50 54 -97
107 -105 118 -12 18 -27 19 -242 19 -210 -1 -235 -2 -297 -23 -37 -12 -74 -26
-80 -30 -19 -12 -16 -40 11 -99 145 -322 329 -909 396 -1258 9 -52 20 -106 24
-120 6 -25 36 -268 40 -325 1 -16 6 -45 10 -62 l8 -33 76 0 c42 0 104 5 137
11 33 5 87 14 120 19 123 18 179 30 188 39 17 17 -55 561 -98 744 -13 56 -22
103 -20 106 3 2 31 -22 62 -53 l58 -57 60 6 c93 10 105 19 138 108 16 42 33
77 37 77 4 0 17 -33 29 -72 12 -40 28 -93 36 -118 32 -100 72 -311 100 -530 8
-63 17 -121 20 -127 6 -16 121 -17 196 -2 30 6 81 15 114 20 33 5 92 14 130
21 l70 13 -1 60 c-2 176 -118 846 -174 1005 -5 14 -23 75 -40 135 -46 158 -97
306 -142 415 -22 52 -44 107 -50 123 l-10 27 -216 -1 c-181 -1 -224 -4 -262
-18z"/>
<path d="M6343 4771 c-60 -29 -64 -42 -34 -105 11 -23 32 -70 46 -106 15 -36
33 -78 40 -95 48 -109 120 -301 171 -460 19 -60 39 -119 44 -130 12 -27 47
-142 65 -212 8 -32 26 -101 41 -153 84 -314 133 -563 134 -691 0 -29 6 -51 15
-59 18 -15 128 -9 285 15 58 9 141 22 185 28 l80 12 -3 55 c-2 30 -15 129 -28
220 -69 464 -177 866 -347 1285 -128 316 -158 389 -168 407 -9 17 -27 18 -242
17 -230 -1 -232 -1 -284 -28z"/>
<path d="M5540 4770 c-217 -4 -506 -11 -641 -15 l-247 -8 -38 -33 c-39 -32
-39 -32 -23 -61 24 -42 199 -439 199 -452 0 -26 41 -33 141 -22 55 6 151 11
213 11 l113 0 28 -62 c72 -164 149 -373 194 -533 18 -60 39 -132 46 -160 23
-79 75 -284 91 -355 8 -36 23 -101 33 -145 11 -44 29 -125 41 -180 12 -55 26
-117 32 -139 l9 -39 127 6 c70 3 152 10 182 16 117 22 229 41 249 41 12 0 21
6 21 14 0 21 -74 402 -104 537 -42 184 -158 565 -246 804 -45 121 -82 225 -83
230 -2 11 134 22 290 24 50 0 94 5 97 10 3 5 21 12 40 15 18 4 41 14 49 24 15
17 14 24 -12 92 -38 100 -141 351 -152 373 -9 15 -25 17 -132 15 -67 -1 -300
-5 -517 -8z"/>
<path d="M3863 4743 l-142 -4 -21 -28 c-11 -16 -20 -34 -20 -40 0 -6 23 -59
51 -118 98 -207 190 -420 236 -543 59 -159 123 -343 123 -354 0 -11 -1 -10
-180 195 -69 78 -163 186 -210 239 -93 106 -162 184 -295 335 -48 55 -113 129
-145 165 -32 36 -70 80 -85 98 l-27 32 -252 0 c-183 0 -255 -3 -264 -12 -24
-24 -12 -79 39 -181 60 -120 157 -345 205 -472 18 -49 56 -151 84 -225 138
-364 160 -429 229 -669 61 -208 119 -473 161 -726 22 -137 36 -193 47 -202 20
-16 59 -16 138 -2 83 14 162 26 285 43 145 20 152 23 146 55 -3 14 -8 55 -11
91 -4 36 -27 169 -51 295 -71 364 -72 370 -67 375 3 3 11 -3 18 -13 12 -17
548 -571 629 -651 39 -38 40 -38 100 -32 34 3 106 12 161 20 55 9 131 20 169
25 38 6 73 14 77 18 14 16 -70 463 -156 828 -72 304 -174 613 -302 915 -146
344 -225 524 -236 538 -10 12 -57 13 -434 5z"/>
<path d="M1275 4699 c-132 -3 -368 -7 -525 -8 -394 -2 -468 -19 -511 -119 -24
-55 -24 -62 5 -147 27 -79 47 -129 109 -265 22 -48 129 -294 177 -405 214
-499 286 -723 425 -1310 14 -60 29 -123 34 -140 5 -16 15 -56 21 -88 18 -89
47 -144 109 -207 59 -60 108 -90 148 -90 12 0 23 -4 23 -10 0 -6 32 -10 75
-10 41 0 75 4 75 9 0 5 19 11 43 14 50 6 241 35 312 47 28 5 93 14 145 20 52
6 102 14 110 18 8 3 58 11 110 18 52 7 145 19 205 28 61 9 148 21 195 27 155
18 231 55 292 142 81 117 79 200 -11 550 -22 86 -48 181 -56 210 -9 28 -25 84
-36 122 -44 148 -216 648 -249 720 -5 11 -32 76 -60 145 -181 449 -304 632
-465 693 -132 50 -161 52 -700 36z m388 -553 c42 -18 80 -57 117 -121 63 -110
286 -708 390 -1045 17 -58 39 -125 47 -150 8 -25 18 -86 20 -137 5 -88 5 -92
-20 -117 -15 -14 -37 -26 -52 -26 -14 0 -33 -4 -43 -9 -19 -10 -193 -31 -323
-38 l-87 -4 -36 44 c-20 24 -36 47 -36 52 0 4 -7 21 -15 38 -15 33 -44 126
-71 232 -8 33 -19 69 -24 80 -5 11 -14 40 -20 65 -6 25 -15 54 -19 65 -5 11
-34 99 -66 195 -31 96 -61 180 -65 185 -4 6 -10 24 -14 40 -4 17 -14 44 -21
60 -8 17 -26 62 -40 100 -15 39 -53 135 -85 215 -69 176 -74 195 -60 231 14
34 32 38 145 40 50 1 122 5 160 9 117 12 184 11 218 -4z"/>
</g>
</svg>
